<svg xmlns="http://www.w3.org/2000/svg" viewBox="0 0 140 140" style="fill: rgb(255, 255, 255);"
    original_string_length="8448" role="img">
    <path d="M68 69H72V73H68z" style="fill: rgb(0, 0, 0);"></path>
    <g>
        <path
            d="M83,60L83,60l-5,1l1,0.9c4.5,4,8.3,8.7,11.3,13.9C92.1,78.9,93,82.4,93,86v0c0,1.1,0.9,2,2,2l0,0 c1.1,0,2-0.9,2-2v-0.1c0-3.5-0.8-6.9-2.5-9.9c-2.7-4.9-6.1-9.4-9.9-13.4C83.8,61.8,83.3,61,83,60z"
            style="fill: rgb(0, 0, 0);"></path>
        <path
            d="M95,89c-1.7,0-3-1.3-3-3c0-3.5-0.9-6.8-2.5-9.6c-3-5.1-6.7-9.7-11.1-13.7l-1-0.9c-0.3-0.3-0.4-0.6-0.3-1 c0.1-0.4,0.4-0.6,0.8-0.7l5-1c0.5-0.1,1,0.2,1.2,0.7c0.2,0.8,0.7,1.5,1.3,2.2c3.9,4.1,7.3,8.7,10.1,13.6c1.7,3.1,2.7,6.7,2.7,10.4 C98,87.7,96.7,89,95,89z M80.1,61.6c4.4,4,8.1,8.6,11.1,13.8C93,78.5,94,82.2,94,86c0,0.6,0.4,1,1,1s1-0.4,1-1 c0-3.4-0.8-6.7-2.4-9.5c-2.7-4.8-6-9.3-9.8-13.2c-0.6-0.6-1.1-1.3-1.4-2.1L80.1,61.6z"
            style="fill: inherit;"></path>
    </g>
    <g>
        <path
            d="M57,60L57,60l5,1l-1,0.9c-4.5,4-8.3,8.7-11.3,13.9C47.9,78.9,47,82.4,47,86v0c0,1.1-0.9,2-2,2h0 c-1.1,0-2-0.9-2-2v-0.1c0-3.5,0.8-6.9,2.5-9.9c2.7-4.9,6.1-9.4,9.9-13.4C56.2,61.8,56.7,61,57,60z"
            style="fill: rgb(0, 0, 0);"></path>
        <path
            d="M45,89c-1.7,0-3-1.3-3-3c0-3.8,0.9-7.4,2.7-10.5c2.8-4.9,6.2-9.5,10.1-13.6c0.6-0.6,1-1.4,1.3-2.2 c0.2-0.5,0.6-0.8,1.2-0.7l5,1c0.4,0.1,0.7,0.4,0.8,0.7s0,0.8-0.3,1l-1,0.9c-4.4,4-8.2,8.6-11.1,13.7C48.9,79.2,48,82.5,48,86 C48,87.7,46.7,89,45,89z M57.6,61.1c-0.3,0.8-0.8,1.5-1.4,2.1c-3.8,4-7.1,8.4-9.8,13.2c-1.6,2.8-2.4,6.1-2.4,9.5 c0,0.6,0.4,1.1,1,1.1s1-0.4,1-1c0-3.8,1-7.5,2.8-10.6c3-5.1,6.7-9.8,11.1-13.8L57.6,61.1z"
            style="fill: inherit;"></path>
    </g>
    <path d="M131,47c0,0.9-2.2,2-7.8,2c-5.3,0-15.2-2-15.2-2s9.9-2,15.2-2C128.8,45,131,45.9,131,47z"
        style="fill: rgb(0, 0, 0);"></path>
    <path d="M79,47c0-0.9,2.2-2,7.8-2c5.3,0,15.2,2,15.2,2s-9.9,2-15.2,2C81.2,49,79,48.1,79,47z"
        style="fill: rgb(0, 0, 0);"></path>
    <path d="M64 65H76V69H64z" style="fill: rgb(0, 0, 0);"></path>
    <path
        d="M39,56c17.1,8,44.9,8,62,0l-1-3l-10.8,2.7c-0.7,0.2-1.4,0.3-2.1,0.4c-3.4,0.4-6.8-0.9-9.2-3.3l-0.2-0.2 c-0.3-0.3-0.6-0.6-0.8-0.9C76.5,51,75.4,50,74,50h-8c-1.4,0-2.5,1-2.9,1.6c-0.3,0.3-0.5,0.6-0.8,0.9L62,52.7 c-2.4,2.4-5.8,3.7-9.2,3.3c-0.7-0.1-1.4-0.2-2.1-0.4L40,53L39,56z"
        style="fill: rgb(0, 0, 0);"></path>
    <g>
        <path d="M100 51H110V58H100z" style="fill: none;"></path>
    </g>
    <path d="M108,50h-6v-3c0-1.1,0.9-2,2-2h2c1.1,0,2,0.9,2,2V50z" style="fill: rgb(0, 0, 0);"></path>
    <path d="M38,58h-6v0c0,1.6,0.6,3,1.7,3.9L35,63l1.3-1.1C37.4,61,38,59.6,38,58L38,58z" style="fill: rgb(0, 0, 0);">
    </path>
    <path d="M68 62H72V65H68z" style="fill: rgb(0, 0, 0);"></path>
    <path
        d="M101.9,55.7l-1-3c-0.2-0.5-0.7-0.8-1.2-0.7L89,54.7c-0.6,0.2-1.3,0.3-2,0.4c-2.9,0.4-6.1-0.8-8.3-3.1l-0.2-0.2 c-0.3-0.3-0.5-0.6-0.8-0.9c-0.6-0.7-1.9-2-3.7-2h-8c-1.8,0-3.1,1.2-3.7,2c-0.2,0.3-0.5,0.6-0.8,0.9L61.3,52 c-2.3,2.3-5.4,3.4-8.3,3.1c-0.7-0.1-1.3-0.2-2-0.4L40.2,52c-0.5-0.1-1,0.2-1.2,0.7l-1,3c-0.2,0.5,0.1,1,0.5,1.2 c8.7,4,20,6.1,31.4,6.1c11.4,0,22.8-2,31.4-6.1C101.9,56.7,102.1,56.2,101.9,55.7z M40.7,54.2l9.9,2.5c0.7,0.2,1.5,0.3,2.2,0.4 c3.5,0.4,7.1-0.9,9.8-3.4v7c-8.1-0.7-15.9-2.4-22.3-5.2L40.7,54.2z M63.5,60.8v-8.1c0.1-0.1,0.2-0.2,0.3-0.4C64.2,51.8,65,51,66,51 h8c1,0,1.8,0.8,2.2,1.2c0.1,0.1,0.2,0.3,0.3,0.4v8.1C72.2,61.1,67.8,61.1,63.5,60.8z M77.5,60.7v-7c2.7,2.5,6.3,3.8,9.8,3.4 c0.7-0.1,1.5-0.2,2.2-0.4l9.9-2.5l0.4,1.3C93.4,58.3,85.6,60,77.5,60.7z"
        style="fill: inherit;"></path>
    <path
        d="M76,64h-3v-2c0-0.6-0.4-1-1-1h-4c-0.6,0-1,0.4-1,1v2h-3c-0.6,0-1,0.4-1,1v4c0,0.6,0.4,1,1,1h3v3 c0,0.6,0.4,1,1,1h4c0.6,0,1-0.4,1-1v-3h3c0.6,0,1-0.4,1-1v-4C77,64.4,76.6,64,76,64z M72,68h-4h-0.5v-2H68h4h0.5v2H72z M69,63h2v1 h-2V63z M65,66h1.5v2H65V66z M71,72h-2v-2h2V72z M75,68h-1.5v-2H75V68z"
        style="fill: inherit;"></path>
    <path d="M61,47c0,0.9-2.2,2-7.8,2C47.9,49,38,47,38,47s9.9-2,15.2-2C58.8,45,61,45.9,61,47z"
        style="fill: rgb(0, 0, 0);"></path>
    <path d="M9,47c0-0.9,2.2-2,7.8-2c5.3,0,15.2,2,15.2,2s-9.9,2-15.2,2C11.2,49,9,48.1,9,47z"
        style="fill: rgb(0, 0, 0);"></path>
    <path d="M39,58h-8l0-0.1c-0.6-2.6-1-5.2-1-7.9v0h10v0c0,2.7-0.3,5.3-1,7.9L39,58z" style="fill: rgb(0, 0, 0);"></path>
    <path d="M38,50h-6v-3c0-1.1,0.9-2,2-2h2c1.1,0,2,0.9,2,2V50z" style="fill: rgb(0, 0, 0);"></path>
    <g>
        <path
            d="M122,41.5c-0.3,0-0.5-0.2-0.5-0.5V29c0-0.3,0.2-0.5,0.5-0.5s0.5,0.2,0.5,0.5v12 C122.5,41.3,122.3,41.5,122,41.5z"
            style="fill: inherit;"></path>
    </g>
    <g>
        <path
            d="M125,34.5c-0.3,0-0.5-0.2-0.5-0.5v-6c0-0.3,0.2-0.5,0.5-0.5s0.5,0.2,0.5,0.5v6C125.5,34.3,125.3,34.5,125,34.5 z"
            style="fill: inherit;"></path>
    </g>
    <g>
        <path
            d="M125,39.5c-0.3,0-0.5-0.2-0.5-0.5v-2c0-0.3,0.2-0.5,0.5-0.5s0.5,0.2,0.5,0.5v2C125.5,39.3,125.3,39.5,125,39.5 z"
            style="fill: inherit;"></path>
    </g>
    <g>
        <path
            d="M119,39.5c-0.3,0-0.5-0.2-0.5-0.5v-6c0-0.3,0.2-0.5,0.5-0.5s0.5,0.2,0.5,0.5v6C119.5,39.3,119.3,39.5,119,39.5 z"
            style="fill: inherit;"></path>
    </g>
    <g>
        <path
            d="M119,30.5c-0.3,0-0.5-0.2-0.5-0.5v-4c0-0.3,0.2-0.5,0.5-0.5s0.5,0.2,0.5,0.5v4C119.5,30.3,119.3,30.5,119,30.5 z"
            style="fill: inherit;"></path>
    </g>
    <g>
        <path
            d="M89,42.5c-0.3,0-0.5-0.2-0.5-0.5V32c0-0.3,0.2-0.5,0.5-0.5s0.5,0.2,0.5,0.5v10C89.5,42.3,89.3,42.5,89,42.5z"
            style="fill: inherit;"></path>
    </g>
    <g>
        <path
            d="M92,40.5c-0.3,0-0.5-0.2-0.5-0.5v-8c0-0.3,0.2-0.5,0.5-0.5s0.5,0.2,0.5,0.5v8C92.5,40.3,92.3,40.5,92,40.5z"
            style="fill: inherit;"></path>
    </g>
    <g>
        <path
            d="M86,40.5c-0.3,0-0.5-0.2-0.5-0.5v-2c0-0.3,0.2-0.5,0.5-0.5s0.5,0.2,0.5,0.5v2C86.5,40.3,86.3,40.5,86,40.5z"
            style="fill: inherit;"></path>
    </g>
    <g>
        <path
            d="M86,35.5c-0.3,0-0.5-0.2-0.5-0.5v-6c0-0.3,0.2-0.5,0.5-0.5s0.5,0.2,0.5,0.5v6C86.5,35.3,86.3,35.5,86,35.5z"
            style="fill: inherit;"></path>
    </g>
    <g>
        <path
            d="M53,42.5c-0.3,0-0.5-0.2-0.5-0.5v-9c0-0.3,0.2-0.5,0.5-0.5s0.5,0.2,0.5,0.5v9C53.5,42.3,53.3,42.5,53,42.5z"
            style="fill: inherit;"></path>
    </g>
    <g>
        <path
            d="M56,40.5c-0.3,0-0.5-0.2-0.5-0.5v-3c0-0.3,0.2-0.5,0.5-0.5s0.5,0.2,0.5,0.5v3C56.5,40.3,56.3,40.5,56,40.5z"
            style="fill: inherit;"></path>
    </g>
    <g>
        <path
            d="M56,35.5c-0.3,0-0.5-0.2-0.5-0.5v-4c0-0.3,0.2-0.5,0.5-0.5s0.5,0.2,0.5,0.5v4C56.5,35.3,56.3,35.5,56,35.5z"
            style="fill: inherit;"></path>
    </g>
    <g>
        <path
            d="M50,41.5c-0.3,0-0.5-0.2-0.5-0.5v-6c0-0.3,0.2-0.5,0.5-0.5s0.5,0.2,0.5,0.5v6C50.5,41.3,50.3,41.5,50,41.5z"
            style="fill: inherit;"></path>
    </g>
    <g>
        <path
            d="M18,42.5c-0.3,0-0.5-0.2-0.5-0.5v-4c0-0.3,0.2-0.5,0.5-0.5s0.5,0.2,0.5,0.5v4C18.5,42.3,18.3,42.5,18,42.5z"
            style="fill: inherit;"></path>
    </g>
    <g>
        <path
            d="M18,36.5c-0.3,0-0.5-0.2-0.5-0.5v-5c0-0.3,0.2-0.5,0.5-0.5s0.5,0.2,0.5,0.5v5C18.5,36.3,18.3,36.5,18,36.5z"
            style="fill: inherit;"></path>
    </g>
    <g>
        <path
            d="M21,41.5c-0.3,0-0.5-0.2-0.5-0.5v-8c0-0.3,0.2-0.5,0.5-0.5s0.5,0.2,0.5,0.5v8C21.5,41.3,21.3,41.5,21,41.5z"
            style="fill: inherit;"></path>
    </g>
    <g>
        <path
            d="M15,40.5c-0.3,0-0.5-0.2-0.5-0.5v-4c0-0.3,0.2-0.5,0.5-0.5s0.5,0.2,0.5,0.5v4C15.5,40.3,15.3,40.5,15,40.5z"
            style="fill: inherit;"></path>
    </g>
    <path d="M109,58h-8l0-0.1c-0.6-2.6-1-5.2-1-7.9v0h10v0c0,2.7-0.3,5.3-1,7.9L109,58z" style="fill: rgb(0, 0, 0);">
    </path>
    <path d="M108,58h-6v0c0,1.6,0.6,3,1.7,3.9L105,63l1.3-1.1C107.4,61,108,59.6,108,58L108,58z"
        style="fill: rgb(0, 0, 0);"></path>
    <path
        d="M123.2,44c-4.5,0-11.8,1.3-14.4,1.8c-0.5-1.1-1.5-1.8-2.8-1.8c0-0.6-0.4-1-1-1s-1,0.4-1,1 c-1.2,0-2.3,0.8-2.8,1.8c-2.6-0.5-10-1.8-14.4-1.8c-5.7,0-8.8,1.1-8.8,3c0,2,2.9,3,8.8,3c4.3,0,11.4-1.3,14.2-1.8V49h-1 c-0.6,0-1,0.4-1,1c0,2.7,0.3,5.5,1,8.1l0,0.1c0.1,0.4,0.5,0.8,1,0.8h0.1c0.2,1.5,0.9,2.8,1.9,3.7l1.3,1.1c0.2,0.2,0.4,0.2,0.6,0.2 s0.5-0.1,0.6-0.2l1.3-1.1c1-0.9,1.7-2.2,1.9-3.7h0.1c0.5,0,0.9-0.3,1-0.8l0-0.1c0.7-2.7,1-5.4,1-8.1c0-0.6-0.4-1-1-1h-1v-0.8 c2.8,0.5,9.9,1.8,14.2,1.8c5.7,0,8.8-1.1,8.8-3C132,45,129.1,44,123.2,44z M86.8,48c-4.8,0-6.3-0.7-6.7-1c0.5-0.4,2.4-1,6.7-1 c2.6,0,6.4,0.5,9.5,1C93.2,47.5,89.4,48,86.8,48z M109,51c0,0.8-0.1,1.7-0.2,2.5h-7.6c-0.1-0.8-0.2-1.7-0.2-2.5h1h6H109z M108.2,57 H108h-6h-0.2c-0.2-0.8-0.3-1.7-0.5-2.5h7.3C108.5,55.3,108.4,56.2,108.2,57z M105.7,61.1l-0.7,0.6l-0.7-0.6c-0.6-0.5-1-1.3-1.2-2.1 h3.8C106.7,59.9,106.3,60.6,105.7,61.1z M103,49v-2c0-0.6,0.4-1,1-1h2c0.6,0,1,0.4,1,1v2H103z M123.2,48c-2.6,0-6.4-0.5-9.5-1 c3.1-0.5,6.9-1,9.5-1c4.8,0,6.3,0.7,6.7,1C129.3,47.3,127.5,48,123.2,48z"
        style="fill: inherit;"></path>
    <g>
        <circle cx="70" cy="79" r="7" style="fill: rgb(0, 0, 0);"></circle>
        <path
            d="M70,87c-4.4,0-8-3.6-8-8s3.6-8,8-8s8,3.6,8,8S74.4,87,70,87z M70,73c-3.3,0-6,2.7-6,6s2.7,6,6,6s6-2.7,6-6 S73.3,73,70,73z"
            style="fill: inherit;"></path>
    </g>
    <g>
        <circle cx="70" cy="79" r="4" style="fill: rgb(0, 0, 0);"></circle>
        <path
            d="M70,83.5c-2.5,0-4.5-2-4.5-4.5s2-4.5,4.5-4.5s4.5,2,4.5,4.5S72.5,83.5,70,83.5z M70,75.5 c-1.9,0-3.5,1.6-3.5,3.5s1.6,3.5,3.5,3.5s3.5-1.6,3.5-3.5S71.9,75.5,70,75.5z"
            style="fill: inherit;"></path>
    </g>
    <path
        d="M53.2,44c-4.5,0-11.8,1.3-14.4,1.8C38.3,44.8,37.2,44,36,44c0-0.6-0.4-1-1-1s-1,0.4-1,1c-1.2,0-2.3,0.8-2.8,1.8 c-2.6-0.5-10-1.8-14.4-1.8C11.1,44,8,45.1,8,47c0,2,2.9,3,8.8,3c4.3,0,11.4-1.3,14.2-1.8V49h-1c-0.6,0-1,0.4-1,1 c0,2.7,0.3,5.5,1,8.1l0,0.1c0.1,0.4,0.5,0.8,1,0.8h0.1c0.2,1.5,0.9,2.8,1.9,3.7l1.3,1.1c0.2,0.2,0.4,0.2,0.6,0.2s0.5-0.1,0.6-0.2 l1.3-1.1c1-0.9,1.7-2.2,1.9-3.7H39c0.5,0,0.9-0.3,1-0.8l0-0.1c0.7-2.7,1-5.4,1-8.1c0-0.6-0.4-1-1-1h-1v-0.8 c2.8,0.5,9.9,1.8,14.2,1.8c5.7,0,8.8-1.1,8.8-3C62,45,59.1,44,53.2,44z M16.8,48c-4.8,0-6.3-0.7-6.7-1c0.5-0.4,2.4-1,6.7-1 c2.6,0,6.4,0.5,9.5,1C23.2,47.5,19.4,48,16.8,48z M39,51c0,0.8-0.1,1.7-0.2,2.5h-7.6C31.1,52.7,31,51.8,31,51h1h6H39z M38.2,57H38 h-6h-0.2c-0.2-0.8-0.3-1.7-0.5-2.5h7.3C38.5,55.3,38.4,56.2,38.2,57z M35.7,61.1L35,61.7l-0.7-0.6c-0.6-0.5-1-1.3-1.2-2.1h3.8 C36.7,59.9,36.3,60.6,35.7,61.1z M33,49v-2c0-0.6,0.4-1,1-1h2c0.6,0,1,0.4,1,1v2H33z M53.2,48c-2.6,0-6.4-0.5-9.5-1 c3.1-0.5,6.9-1,9.5-1c4.8,0,6.3,0.7,6.7,1C59.3,47.3,57.5,48,53.2,48z"
        style="fill: inherit;"></path>
</svg>